<?xml version="1.0" encoding="utf-8"?>
<?xml-stylesheet type="text/css" href="wild.css"?>  
<!-- Generator: Adobe Illustrator 19.2.1, SVG Export Plug-In . SVG Version: 6.00 Build 0)  -->
<svg version="1.1" id="Layer_1" xmlns="http://www.w3.org/2000/svg" xmlns:xlink="http://www.w3.org/1999/xlink" x="0px" y="0px"
	 viewBox="0 0 1536 2048" style="enable-background:new 0 0 1536 2048;" xml:space="preserve">
  
    	
<circle id="CircleColour" cx="768" cy="1024" r="323.5" fill="#B3B3B3" stroke="#000000" stroke-width="25" stroke-miterlimit="10"/>
    
<g id="wholeMicrophone">    
    <path id="stand" d="M726.5,1278c-0.1-10.2-0.1-20.3-0.3-30.5c-0.1-2.2,1-2.4,2.7-2.3c6.2,0.1,12.5-0.1,18.7,0.1c2.5,0.1,3.3-0.7,3.3-3.3
        c-0.1-7.3-0.1-14.6,0-22c0.1-2.4-0.8-3.3-3.1-3.8c-24.7-5.1-44.4-18-59.1-38.2c-11.6-15.8-17.4-33.8-18-53.4
        c-0.3-10-0.2-20-0.1-30.1c0.1-9.6,7.2-16.7,16.2-16.8c9.1-0.1,16.1,6.9,16.4,16.6c0.3,11.1-0.6,22.2,0.5,33.3
        c3.4,34.9,32.8,60.1,67.9,58.1c31.8-1.8,57.8-28.3,59.4-60.7c0.5-10.2,0.1-20.3,0.3-30.5c0.1-6.9,2.9-12.2,9.5-15.2
        c6.2-2.8,11.9-1.9,17.1,2.2c3.6,2.8,5.8,6.6,5.9,11.1c0.1,18,1.7,36.1-3,53.7c-4.9,18.6-14.7,34.4-29.1,47.3
        c-10.9,9.7-23.3,16.5-37.2,20.7c-2.3,0.7-4.7,1.4-7.1,1.7c-2.8,0.3-3.9,1.4-3.8,4.4c0.2,7.1,0.2,14.1,0,21.1
        c-0.1,2.9,0.9,3.7,3.8,3.6c6.1-0.2,12.2-0.1,18.3-0.1c1.4,0,2.7-0.2,2.6,1.9c-0.2,10.3,0.4,20.6-0.3,30.8
        C780.7,1278,753.6,1278,726.5,1278z"/>

    <path id="microphone" d="M816.1,1058.2c0,19.9,0.9,39.9-0.3,59.7c-1.1,19.7-11.9,34.1-30.2,41.5c-18.5,7.6-35.9,4.4-51-8.8
        c-11.4-9.9-16.7-22.8-16.7-37.7c-0.1-36.9-0.2-73.6,0.1-110.5c0.1-20,9.1-35.3,26.8-45c16.5-9,38.9-6.5,53.3,5.6
        c12.4,10.5,18.3,23.8,18.3,39.8c0.1,18.4,0,36.9,0,55.3C816.3,1058.2,816.2,1058.2,816.1,1058.2z"/>

    <path id="lines" d="M756.5,952.1h7.1v103.1h-7.1V952.1z M741.6,951.5h7.1v103.1h-7.1V951.5z M726.7,952.1h7.1v103.1h-7.1V952.1z
         M771.4,952.1h7.1v103.1h-7.1V952.1z M786.3,952.1h7.1v103.1h-7.1V952.1z M801.2,952.1h7.1v103.1h-7.1V952.1z" fill="#B3B3B3"/>
</g>

<rect id="bigLine" x="456.9" y="1009.6" transform="matrix(0.866 -0.5 0.5 0.866 -409.0987 521.1988)" width="622.2" height="28.8"/>    

<g id="WiFi">

    <path id="topCurve" d="M772,770c22.2,0.8,50.1,7.2,72.7,19.5c21.1,11.5,37,28.5,48.9,45.1c2.4,3.3,4.6,6.7,6.7,10.2
        c3.1,5.2,1.9,11.3-2.7,14.9c-4.7,3.6-10.9,3.3-15.1-0.8c-4.4-4.3-7-9.9-10.6-14.7c-19.4-24.9-44.2-41.3-75.2-48.1
        c-34.5-7.6-66.9-2.5-97.2,15.6c-17.5,10.4-31.6,24.4-42.4,41.7c-3,4.7-6.8,7.8-12.6,7.1c-4.9-0.6-8.1-3.4-9.7-8.1
        c-1.3-3.6-0.3-7,1.7-10c14.4-23.1,33.5-41.2,57.4-54.2c17-9.3,47.5-17.7,72.3-17.8" fill="#CCCCCC"/>
    
    <path id="midCurve" d="M674.4,876.2c-0.3-2.8,1-5.1,2.6-7.3c13.8-20.5,32.3-35,56-42.5c24.4-7.8,48.9-7.2,72.8,1.9
        c19.5,7.4,35.5,19.8,47.7,37c1.3,1.9,2.7,3.7,3.9,5.7c3.6,6,2.5,12.7-2.6,16.2c-5.6,3.8-12.6,2.3-16.7-3.6
        c-5.5-7.9-11.6-15.2-19.3-21.2c-12-9.4-25.5-15.3-40.5-17.1c-17.9-2.2-35,0.3-51.1,8.8c-11.8,6.3-21.5,14.8-29.2,25.7
        c-2.2,3.1-4.2,6.2-8.2,7.6C682.2,889.6,674.5,884.4,674.4,876.2z" fill="#CCCCCC"/>
    
    <path id="bottomCurve" d="M765.6,900.4c-15.8,0.8-28.6,7.9-36.6,22.8c-1.9,3.6-3.8,7.2-8.1,8.5c-4.7,1.5-9,0.6-12.2-3
        c-3.5-3.9-3.9-8.5-1.8-13.2c17.4-38.1,66.1-50.4,99.3-25c8.8,6.7,15.6,15.2,20,25.5c2.8,6.5,0.9,13-4.9,16
        c-4.7,2.5-12.2,1.3-15.4-5.2c-4-8.1-9.2-15.2-17.2-20C781.8,902.6,774.5,900.7,765.6,900.4z" fill="#CCCCCC"/>
</g>

<g id="topButtons">
    <path id="C2R2" d="M823,524H713c-23.9,0-43.5-19.6-43.5-43.5v0c0-23.9,19.6-43.5,43.5-43.5h110c23.9,0,43.5,19.6,43.5,43.5v0
        C866.5,504.4,846.9,524,823,524z" fill="#FFFFFF" stroke="#000000" stroke-width="8" stroke-miterlimit="10"/>
    <rect x="710" y="467" class="st4" width="116" height="27"/>
    <text transform="matrix(1 0 0 1 710 488.2998)" class="st5 st6">Click Me!</text>

    <path id="C2R1" d="M823,355H713c-23.9,0-43.5-19.6-43.5-43.5v0c0-23.9,19.6-43.5,43.5-43.5h110c23.9,0,43.5,19.6,43.5,43.5v0
        C866.5,335.4,846.9,355,823,355z" fill="#FFFFFF" stroke="#000000" stroke-width="8" stroke-miterlimit="10"/>
    <rect x="710" y="298" class="st4" width="116" height="27"/>
    <text transform="matrix(1 0 0 1 710 319.2998)" class="st5 st6">Click Me!</text>

    <path id="C1R2" d="M543,524H433c-23.9,0-43.5-19.6-43.5-43.5v0c0-23.9,19.6-43.5,43.5-43.5h110c23.9,0,43.5,19.6,43.5,43.5v0
        C586.5,504.4,566.9,524,543,524z" fill="#FFFFFF" stroke="#000000" stroke-width="8" stroke-miterlimit="10"/>
    <rect x="430" y="467" class="st4" width="116" height="27"/>
    <text transform="matrix(1 0 0 1 430 488.2998)" class="st5 st6">Click Me!</text>
    
    <path id="C1R1" d="M543,355H433c-23.9,0-43.5-19.6-43.5-43.5v0c0-23.9,19.6-43.5,43.5-43.5h110c23.9,0,43.5,19.6,43.5,43.5v0
        C586.5,335.4,566.9,355,543,355z" fill="#FFFFFF" stroke="#000000" stroke-width="8" stroke-miterlimit="10"/>
    <rect x="430" y="298" class="st4" width="116" height="27"/>
    <text transform="matrix(1 0 0 1 430 319.2998)" class="st5 st6">Click Me!</text>
    
    <path id="C3R2" d="M1101,524H991c-23.9,0-43.5-19.6-43.5-43.5v0c0-23.9,19.6-43.5,43.5-43.5h110c23.9,0,43.5,19.6,43.5,43.5v0
        C1144.5,504.4,1124.9,524,1101,524z" fill="#FFFFFF" stroke="#000000" stroke-width="8" stroke-miterlimit="10"/>
    <rect x="988" y="467" class="st4" width="116" height="27"/>
    <text transform="matrix(1 0 0 1 988 488.2998)" class="st5 st6">Click Me!</text>
    
    <path id="C3R1" d="M1101,355H991c-23.9,0-43.5-19.6-43.5-43.5v0c0-23.9,19.6-43.5,43.5-43.5h110c23.9,0,43.5,19.6,43.5,43.5v0
    C1144.5,335.4,1124.9,355,1101,355z" fill="#FFFFFF" stroke="#000000" stroke-width="8" stroke-miterlimit="10"/>
    <rect x="988" y="298" class="st4" width="116" height="27"/>
    <text transform="matrix(1 0 0 1 988 319.2998)" class="st5 st6">Click Me!</text>
</g>

<a xlink:href="http://www.google.ca">
    <path id="words" class="st4" d="M425.3,930.8c51.5-189.3,246.6-301,435.9-249.5c189.3,51.5,301,246.6,249.5,435.9
        s-246.6,301-435.9,249.5S373.8,1120.1,425.3,930.8z"/>
    <text><textPath  xlink:href="#words" startOffset="132.0231%">
    <tspan  class="st5" style="font-size:68.0563px;">Click To Speak Into The Microphone</tspan></textPath>
    </text>
</a>
   
<g id="bottomButtons">
    <path id="C2R4" d="M824,1727H714c-23.9,0-43.5-19.6-43.5-43.5l0,0c0-23.9,19.6-43.5,43.5-43.5h110c23.9,0,43.5,19.6,43.5,43.5
        l0,0C867.5,1707.4,847.9,1727,824,1727z" fill="#FFFFFF" stroke="#000000" stroke-width="8" stroke-miterlimit="10"/>
    <rect x="711" y="1670" class="st4" width="116" height="27"/>
    <text id="text2" transform="matrix(1 0 0 1 711 1691.2998)" class="st5 st6">Click Me!</text>
<g>
    <path id="C2R3" d="M824,1558H714c-23.9,0-43.5-19.6-43.5-43.5l0,0c0-23.9,19.6-43.5,43.5-43.5h110c23.9,0,43.5,19.6,43.5,43.5
        l0,0C867.5,1538.4,847.9,1558,824,1558z" fill="#FFFFFF" stroke="#000000" stroke-width="8" stroke-miterlimit="10"/>
    <rect x="711" y="1501" class="st4" width="116" height="27"/>
    <text transform="matrix(1 0 0 1 711 1522.2998)" class="st5 st6">Click Me!</text>
    
</g>

    <path id="C1R4" d="M544,1727H434c-23.9,0-43.5-19.6-43.5-43.5l0,0c0-23.9,19.6-43.5,43.5-43.5h110c23.9,0,43.5,19.6,43.5,43.5
        l0,0C587.5,1707.4,567.9,1727,544,1727z" fill="#FFFFFF" stroke="#000000" stroke-width="8" stroke-miterlimit="10"/>
    <rect x="431" y="1670" class="st4" width="116" height="27"/>
    <text id="text1" transform="matrix(1 0 0 1 431 1691.2998)" class="st5 st6">Click Me!</text>
    
    <path id="C1R3" d="M544,1558H434c-23.9,0-43.5-19.6-43.5-43.5l0,0c0-23.9,19.6-43.5,43.5-43.5h110c23.9,0,43.5,19.6,43.5,43.5
        l0,0C587.5,1538.4,567.9,1558,544,1558z" fill="#FFFFFF" stroke="#000000" stroke-width="8" stroke-miterlimit="10"/>
    <rect x="431" y="1501" class="st4" width="116" height="27"/>
    <text transform="matrix(1 0 0 1 431 1522.2998)" class="st5 st6">Click Me!</text>
    
    <path id="C3R4" d="M1102,1727H992c-23.9,0-43.5-19.6-43.5-43.5l0,0c0-23.9,19.6-43.5,43.5-43.5h110c23.9,0,43.5,19.6,43.5,43.5
                       l0,0C1145.5,1707.4,1125.9,1727,1102,1727z" fill="#FFFFFF" stroke="#000000" stroke-width="8" stroke-miterlimit="10"/>
    <rect x="989" y="1670" class="st4" width="116" height="27"/>
    <text transform="matrix(1 0 0 1 989 1691.2998)" class="st5 st6">Click Me!</text>
    
    <path id="C3R3" d="M1102,1558H992c-23.9,0-43.5-19.6-43.5-43.5l0,0c0-23.9,19.6-43.5,43.5-43.5h110c23.9,0,43.5,19.6,43.5,43.5
        l0,0C1145.5,1538.4,1125.9,1558,1102,1558z" fill="#FFFFFF" stroke="#000000" stroke-width="8" stroke-miterlimit="10"/>
    <rect x="989" y="1501" class="st4" width="116" height="27"/>
    <text transform="matrix(1 0 0 1 989 1522.2998)" class="st5 st6">Click Me!</text>
</g>
</svg>
